<svg id="Capa_1" enable-background="new 0 0 512 512" height="512" viewBox="0 0 512 512" width="512" xmlns="http://www.w3.org/2000/svg"><g><path d="m495.484 90.839h-478.968l-8.699 10.161v294.151c0 9.122 7.395 16.516 16.516 16.516h477.667l10-7.021v-297.29c0-9.123-7.395-16.517-16.516-16.517z" fill="#f2f2f6"/><path d="m16.516 355.097v-264.258c-9.121 0-16.516 7.394-16.516 16.516v297.29c0 9.122 7.395 16.516 16.516 16.516h478.968c9.121 0 16.516-7.395 16.516-16.516h-445.935c-27.365 0-49.549-22.183-49.549-49.548z" fill="#e1e1e6"/><path d="m146.202 220.375c-1.581 0-3.185-.452-4.597-1.403-3.782-2.54-4.79-7.673-2.25-11.46l27.621-41.133c2.532-3.782 7.669-4.798 11.46-2.25 3.782 2.54 4.79 7.673 2.25 11.46l-27.621 41.133c-1.589 2.371-4.202 3.653-6.863 3.653z" fill="#4b3f4e"/><path d="m118.774 201.96c-1.581 0-3.185-.452-4.597-1.403-3.782-2.54-4.79-7.673-2.25-11.46l27.621-41.133c2.532-3.774 7.677-4.802 11.46-2.25 3.782 2.54 4.79 7.673 2.25 11.46l-27.621 41.133c-1.589 2.37-4.202 3.653-6.863 3.653z" fill="#5d5360"/><path d="m365.589 367.69c-1.581 0-3.185-.452-4.597-1.403-3.782-2.54-4.79-7.673-2.25-11.46l27.621-41.133c2.532-3.778 7.677-4.802 11.46-2.25 3.782 2.54 4.79 7.673 2.25 11.46l-27.621 41.133c-1.589 2.37-4.202 3.653-6.863 3.653z" fill="#5d5360"/><path d="m338.161 349.274c-1.581 0-3.185-.452-4.597-1.403-3.782-2.54-4.79-7.673-2.25-11.46l27.621-41.133c2.532-3.778 7.669-4.806 11.46-2.25 3.782 2.54 4.79 7.673 2.25 11.46l-27.621 41.133c-1.589 2.371-4.201 3.653-6.863 3.653z" fill="#4b3f4e"/><path d="m365.798 220.375c-2.661 0-5.266-1.282-6.863-3.653l-27.621-41.133c-2.54-3.786-1.532-8.919 2.25-11.46 3.782-2.552 8.911-1.532 11.46 2.25l27.621 41.133c2.54 3.786 1.532 8.919-2.25 11.46-1.411.951-3.016 1.403-4.597 1.403z" fill="#4b3f4e"/><path d="m393.226 201.96c-2.661 0-5.266-1.282-6.863-3.653l-27.621-41.133c-2.54-3.786-1.532-8.919 2.25-11.46 3.782-2.556 8.911-1.532 11.46 2.25l27.621 41.133c2.54 3.786 1.532 8.919-2.25 11.46-1.412.951-3.017 1.403-4.597 1.403z" fill="#5d5360"/><path d="m146.411 367.69c-2.661 0-5.266-1.282-6.863-3.653l-27.621-41.133c-2.54-3.786-1.532-8.919 2.25-11.46 3.782-2.556 8.911-1.536 11.46 2.25l27.621 41.133c2.54 3.786 1.532 8.919-2.25 11.46-1.411.951-3.016 1.403-4.597 1.403z" fill="#5d5360"/><path d="m173.839 349.274c-2.661 0-5.266-1.282-6.863-3.653l-27.621-41.133c-2.54-3.786-1.532-8.919 2.25-11.46 3.79-2.56 8.911-1.528 11.46 2.25l27.621 41.133c2.54 3.786 1.532 8.919-2.25 11.46-1.412.952-3.017 1.403-4.597 1.403z" fill="#4b3f4e"/><path d="m318.333 240c-18.958-12.583-53.352-23.973-66-5l-64.966-24.802-.073.005c-8.755 13.108-13.875 28.851-13.875 45.797 0 45.608 36.973 82.581 82.581 82.581 28.665 0 53.903-14.617 68.71-36.792l-.021-.021c12.666-18.907 12.632-49.12-6.356-61.768z" fill="#5055a0"/><path d="m187.295 210.203c-12.665 18.907-7.559 44.598 11.429 57.247 18.958 12.583 44.584 7.51 57.232-11.463 12.649-18.972 38.258-24.109 57.215-11.461 18.973 12.649 24.127 38.34 11.446 57.247l.073-.005c8.755-13.108 13.876-28.851 13.876-45.797 0-45.608-36.973-82.581-82.581-82.581-28.665 0-53.903 14.617-68.71 36.792z" fill="#e5646e"/></g></svg>